<?xml version="1.0" encoding="UTF-8"?>
<svg id="Layer_1" data-name="Layer 1" xmlns="http://www.w3.org/2000/svg" viewBox="0 0 1380 1024">
  <path d="M1206,1024c-.55,0-1-.45-1-1v-173c0-.55.45-1,1-1s1,.45,1,1v173c0,.55-.45,1-1,1ZM913.72,457.75c-.55,0-1-.45-1-1v-55.26h-320.96c-.55,0-1-.45-1-1v-139.69h-174.76c-.55,0-1-.45-1-1V61c0-.55.45-1,1-1s1,.45,1,1v197.81h174.76c.55,0,1,.45,1,1v139.69h320.96c.55,0,1,.45,1,1v56.26c0,.55-.45,1-1,1Z"/>
  <path d="M474.69,204.53c-.55,0-1-.45-1-1v-56.26c0-.55.45-1,1-1h173.81V61c0-.55.45-1,1-1s1,.45,1,1v86.27c0,.55-.45,1-1,1h-173.81v55.26c0,.55-.45,1-1,1Z"/>
  <path d="M796,260.81h-87.16c-.55,0-1-.45-1-1s.45-1,1-1h86.16V1c0-.55.45-1,1-1s1,.45,1,1v258.81c0,.55-.45,1-1,1Z"/>
  <path d="M708.84,345.22h-58.54c-.55,0-1-.45-1-1v-140.68c0-.55.45-1,1-1h84.7V61c0-.55.45-1,1-1s1,.45,1,1v142.53c0,.55-.45,1-1,1h-84.7v138.68h56.54v-27.14c0-.55.45-1,1-1s1,.45,1,1v28.14c0,.55-.45,1-1,1Z"/>
  <path d="M650.3,204.53h-117.08c-.55,0-1-.45-1-1s.45-1,1-1h117.08c.55,0,1,.45,1,1s-.45,1-1,1Z"/>
  <path d="M913,232c-.55,0-1-.45-1-1v-27h-57c-.27,0-.52-.11-.71-.29-.19-.19-.29-.44-.29-.71l.18-202c0-.55.45-1,1-1h0c.55,0,1,.45,1,1l-.17,201h57c.55,0,1,.45,1,1v28c0,.55-.45,1-1,1Z"/>
  <path d="M913.72,345.22h-58.54c-.55,0-1-.45-1-1v-83.41h-58.18c-.55,0-1-.45-1-1s.45-1,1-1h59.18c.55,0,1,.45,1,1v83.41h57.54c.55,0,1,.45,1,1s-.45,1-1,1Z"/>
  <path d="M1030.78,401.5h-58.28c-.55,0-1-.45-1-1v-56.28c0-.55.45-1,1-1s1,.45,1,1v55.28h56.28v-111.56c0-.55.45-1,1-1s1,.45,1,1v112.56c0,.55-.45,1-1,1Z"/>
  <path d="M1030.78,288.94h-175.6c-.55,0-1-.45-1-1s.45-1,1-1h174.6v-27.14c0-.55.45-1,1-1s1,.45,1,1v28.14c0,.55-.45,1-1,1Z"/>
  <path d="M1379,570.28h-201.88c-.55,0-1-.45-1-1v-112.53c0-.55.45-1,1-1h86.81v-251.22h-290.69v27.14c0,.55-.45,1-1,1s-1-.45-1-1v-28.14c0-.55.45-1,1-1h292.69c.55,0,1,.45,1,1v253.22c0,.55-.45,1-1,1h-86.81v110.53h199.88V61c0-.55.45-1,1-1s1,.45,1,1v508.28c0,.55-.45,1-1,1Z"/>
  <path d="M1323.47,514.01h-87.81c-.55,0-1-.45-1-1s.45-1,1-1h86.81V148.27h-408.75c-.55,0-1-.45-1-1V61c0-.55.45-1,1-1s1,.45,1,1v85.27h408.75c.55,0,1,.45,1,1v365.73c0,.55-.45,1-1,1Z"/>
  <path d="M474,824c-.55,0-1-.45-1-1v-141c0-.55.45-1,1-1h204v-55c0-.55.45-1,1-1h175v-56c0-.55.45-1,1-1h175v-55c0-.55.45-1,1-1h87v-111c0-.55.45-1,1-1h88c.55,0,1,.45,1,1s-.45,1-1,1h-87v111c0,.55-.45,1-1,1h-87v55c0,.55-.45,1-1,1h-175v56c0,.55-.45,1-1,1h-175v55c0,.55-.45,1-1,1h-204v140c0,.55-.45,1-1,1Z"/>
  <path d="M532,936H59c-.55,0-1-.45-1-1s.45-1,1-1h472v-139h-57c-.55,0-1-.45-1-1s.45-1,1-1h58c.55,0,1,.45,1,1v141c0,.55-.45,1-1,1ZM445,569.5c-.55,0-1-.45-1-1v-111.5c0-.55.45-1,1-1h86v-139h-175c-.27,0-.52-.11-.71-.29-.19-.19-.29-.44-.29-.71l1-169c0-.55.45-.99,1-.99h0c.55,0,1,.45.99,1.01l-.99,167.99h174.99c.55,0,1,.45,1,1v141c0,.55-.45,1-1,1h-86v110.5c0,.55-.45,1-1,1Z"/>
  <path d="M1379,966h-114.07c-.55,0-1-.45-1-1s.45-1,1-1h113.07v-84.26h-113.07c-.55,0-1-.45-1-1v-83.4h-173.61v83.4c0,.55-.45,1-1,1h-174.32v85.26c0,.55-.45,1-1,1h-58.83c-.55,0-1-.45-1-1v-225.93h-56.54v139.67c0,.55-.45,1-1,1h-204.63c-.55,0-1-.45-1-1v-84.4c0-.55.45-1,1-1s1,.45,1,1v83.4h202.63v-139.67c0-.55.45-1,1-1h58.54c.55,0,1,.45,1,1v225.93h56.83v-85.26c0-.55.45-1,1-1h174.32v-83.4c0-.55.45-1,1-1h175.61c.55,0,1,.45,1,1v83.4h113.07c.55,0,1,.45,1,1v86.26c0,.55-.45,1-1,1Z"/>
  <path d="M1379,823.47h-55.52c-.55,0-1-.45-1-1v-195.93h-173.61v55.27c0,.55-.45,1-1,1h-174.63v83.39c0,.55-.45,1-1,1s-1-.45-1-1v-84.39c0-.55.45-1,1-1h174.63v-55.27c0-.55.45-1,1-1h175.61c.55,0,1,.45,1,1v195.93h54.52c.55,0,1,.45,1,1s-.45,1-1,1Z"/>
  <path d="M1030.78,823.47h-117.06c-.55,0-1-.45-1-1v-196.93c0-.55.45-1,1-1h174.61v-55.26c0-.55.45-1,1-1h87.79c.55,0,1,.45,1,1s-.45,1-1,1h-86.79v55.26c0,.55-.45,1-1,1h-174.61v194.93h115.06v-83.39c0-.55.45-1,1-1h175.61c.55,0,1,.45,1,1s-.45,1-1,1h-174.61v83.39c0,.55-.45,1-1,1Z"/>
  <path d="M1264.93,795.35c-.55,0-1-.45-1-1v-111.53h-57.54c-.55,0-1-.45-1-1s.45-1,1-1h58.54c.55,0,1,.45,1,1v112.53c0,.55-.45,1-1,1Z"/>
  <path d="M182,880.5H1c-.55,0-1-.45-1-1s.45-1,1-1h180v-252.5H59c-.55,0-1-.45-1-1v-82H1c-.55,0-1-.45-1-1s.45-1,1-1h58c.55,0,1,.45,1,1v82h122c.55,0,1,.45,1,1v254.5c0,.55-.45,1-1,1Z"/>
  <path d="M1148,1024c-.55,0-1-.45-1-1v-173c0-.55.45-1,1-1s1,.45,1,1v173c0,.55-.45,1-1,1Z"/>
  <path d="M475,880h-235c-.55,0-1-.45-1-1v-393h-119v78h62c.55,0,1,.45,1,1s-.45,1-1,1h-63c-.55,0-1-.45-1-1v-80c0-.55.45-1,1-1h121c.55,0,1,.45,1,1v393h234c.55,0,1,.45,1,1s-.45,1-1,1Z"/>
  <path d="M416,880c-.55,0-1-.45-1-1v-112h-58c-.55,0-1-.45-1-1v-84c0-.55.45-1,1-1s1,.45,1,1v83h58c.55,0,1,.45,1,1v113c0,.55-.45,1-1,1Z"/>
  <path d="M358,824h-59c-.55,0-1-.45-1-1v-198c0-.55.45-1,1-1h117c.55,0,1,.45,1,1v85c0,.55-.45,1-1,1s-1-.45-1-1v-84h-115v196h58c.55,0,1,.45,1,1s-.45,1-1,1Z"/>
  <path d="M621,626h-205c-.55,0-1-.45-1-1s.45-1,1-1h204v-111h-116c-.55,0-1-.45-1-1s.45-1,1-1h117c.55,0,1,.45,1,1v113c0,.55-.45,1-1,1Z"/>
  <path d="M796.63,570.28h-175.61c-.55,0-1-.45-1-1s.45-1,1-1h174.61v-251.2h-28.27c-.55,0-1-.45-1-1s.45-1,1-1h29.27c.55,0,1,.45,1,1v253.2c0,.55-.45,1-1,1Z"/>
  <path d="M972.24,514.01h-117.07c-.55,0-1-.45-1-1v-56.26c0-.55.45-1,1-1s1,.45,1,1v55.26h115.07v-55.26c0-.55.45-1,1-1h87.81c.55,0,1,.45,1,1s-.45,1-1,1h-86.81v55.26c0,.55-.45,1-1,1Z"/>
  <path d="M241,317H59c-.55,0-1-.45-1-1s.45-1,1-1h181v-55c0-.55.45-1,1-1s1,.45,1,1v56c0,.55-.45,1-1,1Z"/>
  <path d="M59,373c-.55,0-1-.45-1-1s.45-1,1-1h182c.55,0,1,.45,1,1s-.45,1-1,1H59Z"/>
  <path d="M416,345c-.55,0-1-.45-1-1v-28c0-.55.45-1,1-1s1,.45,1,1v28c0,.55-.45,1-1,1Z"/>
  <path d="M241,429H59c-.55,0-1-.45-1-1s.45-1,1-1h182c.55,0,1,.45,1,1s-.45,1-1,1Z"/>
  <path d="M563,570H240c-.55,0-1-.45-1-1s.45-1,1-1h323c.55,0,1,.45,1,1s-.45,1-1,1Z"/>
  <path d="M738.09,514.01h-58.52c-.55,0-1-.45-1-1v-55.26h-145.35c-.55,0-1-.45-1-1s.45-1,1-1h146.35c.55,0,1,.45,1,1v55.26h56.52v-55.26c0-.55.45-1,1-1s1,.45,1,1v56.26c0,.55-.45,1-1,1Z"/>
  <path d="M738,966h-146c-.55,0-1-.45-1-1v-86c0-.55.45-1,1-1s1,.45,1,1v85h145c.55,0,1,.45,1,1s-.45,1-1,1Z"/>
  <path d="M1323.5,88h-349.5c-.55,0-1-.45-1-1v-26c0-.55.45-1,1-1s1,.45,1,1v25h347.5v-25c0-.55.45-1,1-1s1,.45,1,1v26c0,.55-.45,1-1,1Z"/>
</svg>